<svg xmlns="http://www.w3.org/2000/svg" version="1.1" xmlns:xlink="http://www.w3.org/1999/xlink" xmlns:svgjs="http://svgjs.dev/svgjs" viewBox="0 0 800 800" opacity="0.65" width="800" height="800"><g stroke-width="2" stroke="hsla(0, 0%, 0%, 1.00)" fill="none"><circle r="2.394736842105263" cx="0" cy="0" fill="hsla(0, 0%, 0%, 1.00)" stroke="none"></circle><circle r="2.394736842105263" cx="66.66666666666667" cy="0" fill="hsla(0, 0%, 0%, 1.00)" stroke="none"></circle><circle r="2.394736842105263" cx="133.33333333333334" cy="0" fill="hsla(0, 0%, 0%, 1.00)" stroke="none"></circle><circle r="2.394736842105263" cx="200" cy="0" fill="hsla(0, 0%, 0%, 1.00)" stroke="none"></circle><circle r="2.394736842105263" cx="266.6666666666667" cy="0" fill="hsla(0, 0%, 0%, 1.00)" stroke="none"></circle><circle r="2.394736842105263" cx="333.33333333333337" cy="0" fill="hsla(0, 0%, 0%, 1.00)" stroke="none"></circle><circle r="2.394736842105263" cx="400.00000000000006" cy="0" fill="hsla(0, 0%, 0%, 1.00)" stroke="none"></circle><circle r="2.394736842105263" cx="466.66666666666674" cy="0" fill="hsla(0, 0%, 0%, 1.00)" stroke="none"></circle><circle r="2.394736842105263" cx="533.3333333333334" cy="0" fill="hsla(0, 0%, 0%, 1.00)" stroke="none"></circle><circle r="2.394736842105263" cx="600" cy="0" fill="hsla(0, 0%, 0%, 1.00)" stroke="none"></circle><circle r="2.394736842105263" cx="666.6666666666666" cy="0" fill="hsla(0, 0%, 0%, 1.00)" stroke="none"></circle><circle r="2.394736842105263" cx="733.3333333333333" cy="0" fill="hsla(0, 0%, 0%, 1.00)" stroke="none"></circle><circle r="2.394736842105263" cx="799.9999999999999" cy="0" fill="hsla(0, 0%, 0%, 1.00)" stroke="none"></circle><circle r="2.394736842105263" cx="0" cy="80" fill="hsla(0, 0%, 0%, 1.00)" stroke="none"></circle><circle r="2.394736842105263" cx="66.66666666666667" cy="80" fill="hsla(0, 0%, 0%, 1.00)" stroke="none"></circle><circle r="2.394736842105263" cx="133.33333333333334" cy="80" fill="hsla(0, 0%, 0%, 1.00)" stroke="none"></circle><circle r="2.394736842105263" cx="200" cy="80" fill="hsla(0, 0%, 0%, 1.00)" stroke="none"></circle><circle r="2.394736842105263" cx="266.6666666666667" cy="80" fill="hsla(0, 0%, 0%, 1.00)" stroke="none"></circle><circle r="2.394736842105263" cx="333.33333333333337" cy="80" fill="hsla(0, 0%, 0%, 1.00)" stroke="none"></circle><circle r="2.394736842105263" cx="400.00000000000006" cy="80" fill="hsla(0, 0%, 0%, 1.00)" stroke="none"></circle><circle r="2.394736842105263" cx="466.66666666666674" cy="80" fill="hsla(0, 0%, 0%, 1.00)" stroke="none"></circle><circle r="2.394736842105263" cx="533.3333333333334" cy="80" fill="hsla(0, 0%, 0%, 1.00)" stroke="none"></circle><circle r="2.394736842105263" cx="600" cy="80" fill="hsla(0, 0%, 0%, 1.00)" stroke="none"></circle><circle r="2.394736842105263" cx="666.6666666666666" cy="80" fill="hsla(0, 0%, 0%, 1.00)" stroke="none"></circle><circle r="2.394736842105263" cx="733.3333333333333" cy="80" fill="hsla(0, 0%, 0%, 1.00)" stroke="none"></circle><circle r="2.394736842105263" cx="799.9999999999999" cy="80" fill="hsla(0, 0%, 0%, 1.00)" stroke="none"></circle><circle r="2.394736842105263" cx="0" cy="160" fill="hsla(0, 0%, 0%, 1.00)" stroke="none"></circle><circle r="2.394736842105263" cx="66.66666666666667" cy="160" fill="hsla(0, 0%, 0%, 1.00)" stroke="none"></circle><circle r="2.394736842105263" cx="133.33333333333334" cy="160" fill="hsla(0, 0%, 0%, 1.00)" stroke="none"></circle><circle r="2.394736842105263" cx="200" cy="160" fill="hsla(0, 0%, 0%, 1.00)" stroke="none"></circle><circle r="2.394736842105263" cx="266.6666666666667" cy="160" fill="hsla(0, 0%, 0%, 1.00)" stroke="none"></circle><circle r="2.394736842105263" cx="333.33333333333337" cy="160" fill="hsla(0, 0%, 0%, 1.00)" stroke="none"></circle><circle r="2.394736842105263" cx="400.00000000000006" cy="160" fill="hsla(0, 0%, 0%, 1.00)" stroke="none"></circle><circle r="2.394736842105263" cx="466.66666666666674" cy="160" fill="hsla(0, 0%, 0%, 1.00)" stroke="none"></circle><circle r="2.394736842105263" cx="533.3333333333334" cy="160" fill="hsla(0, 0%, 0%, 1.00)" stroke="none"></circle><circle r="2.394736842105263" cx="600" cy="160" fill="hsla(0, 0%, 0%, 1.00)" stroke="none"></circle><circle r="2.394736842105263" cx="666.6666666666666" cy="160" fill="hsla(0, 0%, 0%, 1.00)" stroke="none"></circle><circle r="2.394736842105263" cx="733.3333333333333" cy="160" fill="hsla(0, 0%, 0%, 1.00)" stroke="none"></circle><circle r="2.394736842105263" cx="799.9999999999999" cy="160" fill="hsla(0, 0%, 0%, 1.00)" stroke="none"></circle><circle r="2.394736842105263" cx="0" cy="240" fill="hsla(0, 0%, 0%, 1.00)" stroke="none"></circle><circle r="2.394736842105263" cx="66.66666666666667" cy="240" fill="hsla(0, 0%, 0%, 1.00)" stroke="none"></circle><circle r="2.394736842105263" cx="133.33333333333334" cy="240" fill="hsla(0, 0%, 0%, 1.00)" stroke="none"></circle><circle r="2.394736842105263" cx="200" cy="240" fill="hsla(0, 0%, 0%, 1.00)" stroke="none"></circle><circle r="2.394736842105263" cx="266.6666666666667" cy="240" fill="hsla(0, 0%, 0%, 1.00)" stroke="none"></circle><circle r="2.394736842105263" cx="333.33333333333337" cy="240" fill="hsla(0, 0%, 0%, 1.00)" stroke="none"></circle><circle r="2.394736842105263" cx="400.00000000000006" cy="240" fill="hsla(0, 0%, 0%, 1.00)" stroke="none"></circle><circle r="2.394736842105263" cx="466.66666666666674" cy="240" fill="hsla(0, 0%, 0%, 1.00)" stroke="none"></circle><circle r="2.394736842105263" cx="533.3333333333334" cy="240" fill="hsla(0, 0%, 0%, 1.00)" stroke="none"></circle><circle r="2.394736842105263" cx="600" cy="240" fill="hsla(0, 0%, 0%, 1.00)" stroke="none"></circle><circle r="2.394736842105263" cx="666.6666666666666" cy="240" fill="hsla(0, 0%, 0%, 1.00)" stroke="none"></circle><circle r="2.394736842105263" cx="733.3333333333333" cy="240" fill="hsla(0, 0%, 0%, 1.00)" stroke="none"></circle><circle r="2.394736842105263" cx="799.9999999999999" cy="240" fill="hsla(0, 0%, 0%, 1.00)" stroke="none"></circle><circle r="2.394736842105263" cx="0" cy="320" fill="hsla(0, 0%, 0%, 1.00)" stroke="none"></circle><circle r="2.394736842105263" cx="66.66666666666667" cy="320" fill="hsla(0, 0%, 0%, 1.00)" stroke="none"></circle><circle r="2.394736842105263" cx="133.33333333333334" cy="320" fill="hsla(0, 0%, 0%, 1.00)" stroke="none"></circle><circle r="2.394736842105263" cx="200" cy="320" fill="hsla(0, 0%, 0%, 1.00)" stroke="none"></circle><circle r="2.394736842105263" cx="266.6666666666667" cy="320" fill="hsla(0, 0%, 0%, 1.00)" stroke="none"></circle><circle r="2.394736842105263" cx="333.33333333333337" cy="320" fill="hsla(0, 0%, 0%, 1.00)" stroke="none"></circle><circle r="2.394736842105263" cx="400.00000000000006" cy="320" fill="hsla(0, 0%, 0%, 1.00)" stroke="none"></circle><circle r="2.394736842105263" cx="466.66666666666674" cy="320" fill="hsla(0, 0%, 0%, 1.00)" stroke="none"></circle><circle r="2.394736842105263" cx="533.3333333333334" cy="320" fill="hsla(0, 0%, 0%, 1.00)" stroke="none"></circle><circle r="2.394736842105263" cx="600" cy="320" fill="hsla(0, 0%, 0%, 1.00)" stroke="none"></circle><circle r="2.394736842105263" cx="666.6666666666666" cy="320" fill="hsla(0, 0%, 0%, 1.00)" stroke="none"></circle><circle r="2.394736842105263" cx="733.3333333333333" cy="320" fill="hsla(0, 0%, 0%, 1.00)" stroke="none"></circle><circle r="2.394736842105263" cx="799.9999999999999" cy="320" fill="hsla(0, 0%, 0%, 1.00)" stroke="none"></circle><circle r="2.394736842105263" cx="0" cy="400" fill="hsla(0, 0%, 0%, 1.00)" stroke="none"></circle><circle r="2.394736842105263" cx="66.66666666666667" cy="400" fill="hsla(0, 0%, 0%, 1.00)" stroke="none"></circle><circle r="2.394736842105263" cx="133.33333333333334" cy="400" fill="hsla(0, 0%, 0%, 1.00)" stroke="none"></circle><circle r="2.394736842105263" cx="200" cy="400" fill="hsla(0, 0%, 0%, 1.00)" stroke="none"></circle><circle r="2.394736842105263" cx="266.6666666666667" cy="400" fill="hsla(0, 0%, 0%, 1.00)" stroke="none"></circle><circle r="2.394736842105263" cx="333.33333333333337" cy="400" fill="hsla(0, 0%, 0%, 1.00)" stroke="none"></circle><circle r="2.394736842105263" cx="400.00000000000006" cy="400" fill="hsla(0, 0%, 0%, 1.00)" stroke="none"></circle><circle r="2.394736842105263" cx="466.66666666666674" cy="400" fill="hsla(0, 0%, 0%, 1.00)" stroke="none"></circle><circle r="2.394736842105263" cx="533.3333333333334" cy="400" fill="hsla(0, 0%, 0%, 1.00)" stroke="none"></circle><circle r="2.394736842105263" cx="600" cy="400" fill="hsla(0, 0%, 0%, 1.00)" stroke="none"></circle><circle r="2.394736842105263" cx="666.6666666666666" cy="400" fill="hsla(0, 0%, 0%, 1.00)" stroke="none"></circle><circle r="2.394736842105263" cx="733.3333333333333" cy="400" fill="hsla(0, 0%, 0%, 1.00)" stroke="none"></circle><circle r="2.394736842105263" cx="799.9999999999999" cy="400" fill="hsla(0, 0%, 0%, 1.00)" stroke="none"></circle><circle r="2.394736842105263" cx="0" cy="480" fill="hsla(0, 0%, 0%, 1.00)" stroke="none"></circle><circle r="2.394736842105263" cx="66.66666666666667" cy="480" fill="hsla(0, 0%, 0%, 1.00)" stroke="none"></circle><circle r="2.394736842105263" cx="133.33333333333334" cy="480" fill="hsla(0, 0%, 0%, 1.00)" stroke="none"></circle><circle r="2.394736842105263" cx="200" cy="480" fill="hsla(0, 0%, 0%, 1.00)" stroke="none"></circle><circle r="2.394736842105263" cx="266.6666666666667" cy="480" fill="hsla(0, 0%, 0%, 1.00)" stroke="none"></circle><circle r="2.394736842105263" cx="333.33333333333337" cy="480" fill="hsla(0, 0%, 0%, 1.00)" stroke="none"></circle><circle r="2.394736842105263" cx="400.00000000000006" cy="480" fill="hsla(0, 0%, 0%, 1.00)" stroke="none"></circle><circle r="2.394736842105263" cx="466.66666666666674" cy="480" fill="hsla(0, 0%, 0%, 1.00)" stroke="none"></circle><circle r="2.394736842105263" cx="533.3333333333334" cy="480" fill="hsla(0, 0%, 0%, 1.00)" stroke="none"></circle><circle r="2.394736842105263" cx="600" cy="480" fill="hsla(0, 0%, 0%, 1.00)" stroke="none"></circle><circle r="2.394736842105263" cx="666.6666666666666" cy="480" fill="hsla(0, 0%, 0%, 1.00)" stroke="none"></circle><circle r="2.394736842105263" cx="733.3333333333333" cy="480" fill="hsla(0, 0%, 0%, 1.00)" stroke="none"></circle><circle r="2.394736842105263" cx="799.9999999999999" cy="480" fill="hsla(0, 0%, 0%, 1.00)" stroke="none"></circle><circle r="2.394736842105263" cx="0" cy="560" fill="hsla(0, 0%, 0%, 1.00)" stroke="none"></circle><circle r="2.394736842105263" cx="66.66666666666667" cy="560" fill="hsla(0, 0%, 0%, 1.00)" stroke="none"></circle><circle r="2.394736842105263" cx="133.33333333333334" cy="560" fill="hsla(0, 0%, 0%, 1.00)" stroke="none"></circle><circle r="2.394736842105263" cx="200" cy="560" fill="hsla(0, 0%, 0%, 1.00)" stroke="none"></circle><circle r="2.394736842105263" cx="266.6666666666667" cy="560" fill="hsla(0, 0%, 0%, 1.00)" stroke="none"></circle><circle r="2.394736842105263" cx="333.33333333333337" cy="560" fill="hsla(0, 0%, 0%, 1.00)" stroke="none"></circle><circle r="2.394736842105263" cx="400.00000000000006" cy="560" fill="hsla(0, 0%, 0%, 1.00)" stroke="none"></circle><circle r="2.394736842105263" cx="466.66666666666674" cy="560" fill="hsla(0, 0%, 0%, 1.00)" stroke="none"></circle><circle r="2.394736842105263" cx="533.3333333333334" cy="560" fill="hsla(0, 0%, 0%, 1.00)" stroke="none"></circle><circle r="2.394736842105263" cx="600" cy="560" fill="hsla(0, 0%, 0%, 1.00)" stroke="none"></circle><circle r="2.394736842105263" cx="666.6666666666666" cy="560" fill="hsla(0, 0%, 0%, 1.00)" stroke="none"></circle><circle r="2.394736842105263" cx="733.3333333333333" cy="560" fill="hsla(0, 0%, 0%, 1.00)" stroke="none"></circle><circle r="2.394736842105263" cx="799.9999999999999" cy="560" fill="hsla(0, 0%, 0%, 1.00)" stroke="none"></circle><circle r="2.394736842105263" cx="0" cy="640" fill="hsla(0, 0%, 0%, 1.00)" stroke="none"></circle><circle r="2.394736842105263" cx="66.66666666666667" cy="640" fill="hsla(0, 0%, 0%, 1.00)" stroke="none"></circle><circle r="2.394736842105263" cx="133.33333333333334" cy="640" fill="hsla(0, 0%, 0%, 1.00)" stroke="none"></circle><circle r="2.394736842105263" cx="200" cy="640" fill="hsla(0, 0%, 0%, 1.00)" stroke="none"></circle><circle r="2.394736842105263" cx="266.6666666666667" cy="640" fill="hsla(0, 0%, 0%, 1.00)" stroke="none"></circle><circle r="2.394736842105263" cx="333.33333333333337" cy="640" fill="hsla(0, 0%, 0%, 1.00)" stroke="none"></circle><circle r="2.394736842105263" cx="400.00000000000006" cy="640" fill="hsla(0, 0%, 0%, 1.00)" stroke="none"></circle><circle r="2.394736842105263" cx="466.66666666666674" cy="640" fill="hsla(0, 0%, 0%, 1.00)" stroke="none"></circle><circle r="2.394736842105263" cx="533.3333333333334" cy="640" fill="hsla(0, 0%, 0%, 1.00)" stroke="none"></circle><circle r="2.394736842105263" cx="600" cy="640" fill="hsla(0, 0%, 0%, 1.00)" stroke="none"></circle><circle r="2.394736842105263" cx="666.6666666666666" cy="640" fill="hsla(0, 0%, 0%, 1.00)" stroke="none"></circle><circle r="2.394736842105263" cx="733.3333333333333" cy="640" fill="hsla(0, 0%, 0%, 1.00)" stroke="none"></circle><circle r="2.394736842105263" cx="799.9999999999999" cy="640" fill="hsla(0, 0%, 0%, 1.00)" stroke="none"></circle><circle r="2.394736842105263" cx="0" cy="720" fill="hsla(0, 0%, 0%, 1.00)" stroke="none"></circle><circle r="2.394736842105263" cx="66.66666666666667" cy="720" fill="hsla(0, 0%, 0%, 1.00)" stroke="none"></circle><circle r="2.394736842105263" cx="133.33333333333334" cy="720" fill="hsla(0, 0%, 0%, 1.00)" stroke="none"></circle><circle r="2.394736842105263" cx="200" cy="720" fill="hsla(0, 0%, 0%, 1.00)" stroke="none"></circle><circle r="2.394736842105263" cx="266.6666666666667" cy="720" fill="hsla(0, 0%, 0%, 1.00)" stroke="none"></circle><circle r="2.394736842105263" cx="333.33333333333337" cy="720" fill="hsla(0, 0%, 0%, 1.00)" stroke="none"></circle><circle r="2.394736842105263" cx="400.00000000000006" cy="720" fill="hsla(0, 0%, 0%, 1.00)" stroke="none"></circle><circle r="2.394736842105263" cx="466.66666666666674" cy="720" fill="hsla(0, 0%, 0%, 1.00)" stroke="none"></circle><circle r="2.394736842105263" cx="533.3333333333334" cy="720" fill="hsla(0, 0%, 0%, 1.00)" stroke="none"></circle><circle r="2.394736842105263" cx="600" cy="720" fill="hsla(0, 0%, 0%, 1.00)" stroke="none"></circle><circle r="2.394736842105263" cx="666.6666666666666" cy="720" fill="hsla(0, 0%, 0%, 1.00)" stroke="none"></circle><circle r="2.394736842105263" cx="733.3333333333333" cy="720" fill="hsla(0, 0%, 0%, 1.00)" stroke="none"></circle><circle r="2.394736842105263" cx="799.9999999999999" cy="720" fill="hsla(0, 0%, 0%, 1.00)" stroke="none"></circle><circle r="2.394736842105263" cx="0" cy="800" fill="hsla(0, 0%, 0%, 1.00)" stroke="none"></circle><circle r="2.394736842105263" cx="66.66666666666667" cy="800" fill="hsla(0, 0%, 0%, 1.00)" stroke="none"></circle><circle r="2.394736842105263" cx="133.33333333333334" cy="800" fill="hsla(0, 0%, 0%, 1.00)" stroke="none"></circle><circle r="2.394736842105263" cx="200" cy="800" fill="hsla(0, 0%, 0%, 1.00)" stroke="none"></circle><circle r="2.394736842105263" cx="266.6666666666667" cy="800" fill="hsla(0, 0%, 0%, 1.00)" stroke="none"></circle><circle r="2.394736842105263" cx="333.33333333333337" cy="800" fill="hsla(0, 0%, 0%, 1.00)" stroke="none"></circle><circle r="2.394736842105263" cx="400.00000000000006" cy="800" fill="hsla(0, 0%, 0%, 1.00)" stroke="none"></circle><circle r="2.394736842105263" cx="466.66666666666674" cy="800" fill="hsla(0, 0%, 0%, 1.00)" stroke="none"></circle><circle r="2.394736842105263" cx="533.3333333333334" cy="800" fill="hsla(0, 0%, 0%, 1.00)" stroke="none"></circle><circle r="2.394736842105263" cx="600" cy="800" fill="hsla(0, 0%, 0%, 1.00)" stroke="none"></circle><circle r="2.394736842105263" cx="666.6666666666666" cy="800" fill="hsla(0, 0%, 0%, 1.00)" stroke="none"></circle><circle r="2.394736842105263" cx="733.3333333333333" cy="800" fill="hsla(0, 0%, 0%, 1.00)" stroke="none"></circle><circle r="2.394736842105263" cx="799.9999999999999" cy="800" fill="hsla(0, 0%, 0%, 1.00)" stroke="none"></circle></g></svg>